# xmcd
#
# Track frame offsets:
# 150
# 11314
# 26014
# 39156
# 49458
# 61708
# 77919
# 88228
# 98593
# 131934
# 140735
# 150367
# 159128
# 168370
# 179293
# 188533
#
# Disc length: 2638 seconds
#
#
# Revision: 3
# Processed by: cddbd v1.5.2PL0 Copyright (c) Steve Scherf et al.
# Submitted via: FreeRIP 2.951 
#
DISCID=bf0a4c10
DTITLE=Loretta Lynn - Coal Miner's Daughter
DYEAR=1900
DGENRE=
TTITLE0=Hey Loretta
TTITLE1=Coal Miner's Daughter
TTITLE2=Let your love flow
TTITLE3=You're lookin' at country
TTITLE4=Me and Bobby McGee
TTITLE5=Medley  a) One's on the Way  b) The Pill
TTITLE6=Out of my head and back in my bed
TTITLE7=Somebody Somewhere
TTITLE8=Medley a)Ifall to pieces B)Walkin' after midnight c)Crazy d)Back in baby's Arms e)She's got you
TTITLE9=The don't make 'Em like my daddy anymore
TTITLE10=You ain't woman enough
TTITLE11=We've come a long way baby
TTITLE12=Your sqaw is on the war path
TTITLE13=Spring Fever
TTITLE14=Fist city
TTITLE15=Ya'll come
EXTD=Live Recordings
EXTT0=
EXTT1=
EXTT2=
EXTT3=
EXTT4=
EXTT5=
EXTT6=
EXTT7=
EXTT8=
EXTT9=
EXTT10=
EXTT11=
EXTT12=
EXTT13=
EXTT14=
EXTT15=
PLAYORDER=
